#N canvas 51 38 1461 916 12;
#X obj 568 313 noise~;
#X floatatom 670 392 5 0 0 0 - - - 0;
#X floatatom 761 397 6 0.2 2 0 - - - 0;
#X obj 870 323 noise~;
#X floatatom 986 388 5 0 0 0 - - - 0;
#X floatatom 1077 393 6 0.2 2 0 - - - 0;
#X obj 882 485 bp~, f 26;
#X obj 881 558 bp~, f 26;
#X obj 210 307 noise~;
#X floatatom 321 403 5 0 0 0 - - - 0;
#X floatatom 403 419 6 0.2 11 0 - - - 0;
#X obj 1158 154 hsl 128 15 200 2000 0 0 empty empty empty 1 -8 0 10 #fcfcfc #000000 #000000 0 1;
#X obj 1191 227 hsl 128 15 0.3 2 0 1 empty empty empty 0 -8 0 10 #fcfcfc #000000 #000000 6560 1;
#X msg 308 306 130, f 5;
#X msg 995 286 130, f 5;
#X msg 1093 288 1.2, f 5;
#X obj 1009 103 loadbang;
#X obj 572 52 r centerFrequency_01 @hv_param 60 15000 300;
#X obj 692 109 r Q @hv_param 0 1 0.5;
#X msg 680 292 130, f 5;
#X msg 785 295 1.2, f 5;
#X obj 795 750 clip~ -1 1;
#N canvas -1380 765 544 408 automation 0;
#X obj 77 27 snapshot~;
#X obj 15 -27 loadbang;
#X obj 145 27 snapshot~;
#X obj 77 108 +;
#X obj 77 135 spigot;
#X obj 110 110 tgl 15 1 empty empty automation 17 7 0 10 #fcfcfc #000000 #000000 1 1;
#X obj 77 162 outlet;
#X obj 15 0 metro 10;
#X obj 145 0 osc~ 0.01;
#X obj 145 54 * 0.1;
#X obj 145 81 + 0.1;
#X obj 77 0 osc~ 0.2;
#X obj 77 54 * 300;
#X obj 77 81 + 700;
#X connect 0 0 12 0;
#X connect 1 0 7 0;
#X connect 2 0 9 0;
#X connect 3 0 4 0;
#X connect 4 0 6 0;
#X connect 5 0 4 1;
#X connect 7 0 0 0;
#X connect 7 0 2 0;
#X connect 8 0 2 0;
#X connect 9 0 10 0;
#X connect 11 0 0 0;
#X connect 12 0 13 0;
#X connect 13 0 3 0;
#X coords 0 408 1 407 189 40 0;
#X restore 1145 65 pd automation;
#N canvas 1440 78 1920 1052 automation 0;
#X obj 77 671 snapshot~;
#X obj 15 644 metro 10;
#X obj 15 617 loadbang;
#X obj 145 671 snapshot~;
#X obj 77 752 +;
#X obj 145 698 * 0.25;
#X obj 145 725 + 0.25;
#X obj 77 779 spigot;
#X obj 110 754 tgl 15 1 empty empty automation 17 7 0 10 #fcfcfc #000000 #000000 1 1;
#X obj 77 806 outlet;
#X obj 145 644 osc~ 0.6;
#X obj 77 698 * 0.3;
#X obj 77 644 osc~ 0.04;
#X obj 77 725 + 1;
#X connect 0 0 11 0;
#X connect 1 0 0 0;
#X connect 1 0 3 0;
#X connect 2 0 1 0;
#X connect 3 0 5 0;
#X connect 4 0 7 0;
#X connect 5 0 6 0;
#X connect 7 0 9 0;
#X connect 8 0 7 1;
#X connect 10 0 3 0;
#X connect 11 0 13 0;
#X connect 12 0 0 0;
#X connect 13 0 4 0;
#X coords 0 1052 1 1051 95 36 0;
#X restore 1203 311 pd automation;
#X obj 1637 99 bng 19 250 50 0 empty empty empty 0 -10 0 12 #fcfcfc #000000 #000000;
#X obj 1613 156 t b b, f 17;
#X obj 1631 288 pack 0 0 0;
#X msg 1600 337 1 \$2 \, 0.2 \$3 \$2;
#X obj 1599 416 vline~;
#X obj 1582 470 *~;
#X obj 1521 481 *~;
#X obj 1484 531 *~ 0.3;
#X obj 1498 580 clip~ -1.1;
#X obj 1659 706 vcf~ 1;
#X obj 1057 885 dac~;
#X obj 1500 313 noise~;
#X obj 1500 337 lop~ 1200;
#X obj 1343 250 random 5;
#X floatatom 1352 335 5 0 0 0 - - - 0;
#X obj 1344 293 expr ($f1+0.5)*0.25;
#X msg 1640 372 0;
#X obj 1689 201 random 500;
#X obj 1701 242 + 250;
#X obj 1793 191 random 1000;
#X obj 1811 224 + 1000;
#X floatatom 1816 303 5 0 0 0 - - - 0;
#X obj 1919 190 random 1000;
#X floatatom 1905 547 5 0 0 0 - - - 0;
#X obj 1910 584 * 2;
#X floatatom 1905 628 5 0 0 0 - - - 0;
#X obj 1764 334 unpack 0 0 0;
#X obj 1784 410 +;
#X msg 1768 458 1 \$1 \, 0 5 \$1;
#X obj 1771 504 vline~;
#X obj 1777 538 *~;
#X obj 1788 579 *~ 400;
#X obj 1789 619 +~ 400;
#X obj 2142 417 lop~ 5;
#X obj 2053 686 *~;
#X obj 2231 326 noise~;
#X obj 2229 420 lop~ 5;
#X obj 2229 468 +~ 0.3;
#X obj 2229 492 osc~ 0.2;
#X obj 2229 516 *~ 0.1;
#X obj 2229 540 +~ 0.25;
#X obj 208 483 bp~ 500 20, f 26;
#X obj 209 556 bp~ 500 20, f 26;
#X obj 566 489 bp~ 200 20, f 26;
#X obj 565 562 bp~ 200 20, f 26;
#X msg 413 309 10, f 5;
#X obj 2229 443 *~ 25;
#X obj 2147 254 loadbang;
#X obj 552 683 *~ 0.005;
#X msg 2076 328 40;
#X connect 0 0 67 0;
#X connect 1 0 67 1;
#X connect 1 0 68 1;
#X connect 2 0 67 2;
#X connect 2 0 68 2;
#X connect 3 0 6 0;
#X connect 4 0 6 1;
#X connect 4 0 7 1;
#X connect 5 0 6 2;
#X connect 5 0 7 2;
#X connect 6 0 7 0;
#X connect 7 0 72 0;
#X connect 8 0 65 0;
#X connect 9 0 65 1;
#X connect 9 0 66 1;
#X connect 10 0 65 2;
#X connect 10 0 66 2;
#X connect 11 0 1 0;
#X connect 11 0 9 0;
#X connect 11 0 4 0;
#X connect 12 0 2 0;
#X connect 12 0 5 0;
#X connect 13 0 9 0;
#X connect 14 0 4 0;
#X connect 15 0 5 0;
#X connect 16 0 13 0;
#X connect 16 0 69 0;
#X connect 16 0 19 0;
#X connect 16 0 20 0;
#X connect 16 0 14 0;
#X connect 16 0 15 0;
#X connect 17 0 1 0;
#X connect 17 0 9 0;
#X connect 17 0 4 0;
#X connect 18 0 2 0;
#X connect 18 0 5 0;
#X connect 21 0 34 0;
#X connect 21 0 34 1;
#X connect 22 0 11 0;
#X connect 23 0 12 0;
#X connect 24 0 25 0;
#X connect 25 0 26 0;
#X connect 25 1 37 0;
#X connect 25 1 41 0;
#X connect 25 1 43 0;
#X connect 25 1 46 0;
#X connect 26 0 27 0;
#X connect 26 0 50 0;
#X connect 27 0 28 0;
#X connect 28 0 29 0;
#X connect 28 0 29 1;
#X connect 29 0 30 1;
#X connect 30 0 31 0;
#X connect 31 0 32 0;
#X connect 32 0 33 0;
#X connect 33 0 34 0;
#X connect 33 1 34 1;
#X connect 35 0 36 0;
#X connect 36 0 30 0;
#X connect 37 0 39 0;
#X connect 38 0 31 1;
#X connect 39 0 38 0;
#X connect 40 0 28 0;
#X connect 41 0 42 0;
#X connect 42 0 26 1;
#X connect 43 0 44 0;
#X connect 44 0 45 0;
#X connect 44 0 26 2;
#X connect 46 0 47 0;
#X connect 47 0 48 0;
#X connect 47 0 55 1;
#X connect 48 0 49 0;
#X connect 49 0 56 1;
#X connect 50 1 51 0;
#X connect 50 2 51 1;
#X connect 51 0 52 0;
#X connect 52 0 53 0;
#X connect 53 0 54 0;
#X connect 53 0 54 1;
#X connect 54 0 55 0;
#X connect 55 0 56 0;
#X connect 56 0 33 1;
#X connect 57 0 58 0;
#X connect 58 0 34 0;
#X connect 58 0 34 1;
#X connect 59 0 60 0;
#X connect 59 0 57 0;
#X connect 60 0 70 0;
#X connect 61 0 62 0;
#X connect 62 0 63 0;
#X connect 63 0 64 0;
#X connect 64 0 58 1;
#X connect 65 0 66 0;
#X connect 66 0 72 0;
#X connect 67 0 68 0;
#X connect 68 0 72 0;
#X connect 69 0 10 0;
#X connect 70 0 61 0;
#X connect 71 0 73 0;
#X connect 72 0 21 0;
#X connect 73 0 57 1;
